<svg version="1.1" id="Layer_1" xmlns="http://www.w3.org/2000/svg" xmlns:xlink="http://www.w3.org/1999/xlink" x="0px" y="0px"
	 viewBox="0 0 26 26" style="enable-background:new 0 0 26 26;" xml:space="preserve" fill="#262626">
<path class="st0" d="M20,0.2H6L5.2,1v24L6,25.8h14l0.8-0.8V1L20,0.2z M19.2,1.8V19H6.8V1.8H19.2z M6.8,24.2V20h12.5v4.2H6.8z M14,22
	c0,0.6-0.4,1-1,1s-1-0.4-1-1c0-0.6,0.4-1,1-1S14,21.4,14,22z M8.9,7.9L8.2,7.2l4-4l0.7,0.7L8.9,7.9z M8.9,9.9l6.5-6.5l0.7,0.7
	l-6.5,6.5L8.9,9.9z"/>
</svg>
