<svg viewBox="0 0 20 16" fill="#ffffff" xmlns="http://www.w3.org/2000/svg"><path fill-rule="evenodd" clip-rule="evenodd" d="M12.4836 13.0189C11.9617 13.0189 11.5386 13.4416 11.5386 13.963C11.5386 14.4845 11.9617 14.9071 12.4836 14.9071C13.0055 14.9071 13.4286 14.4845 13.4286 13.963C13.4286 13.4416 13.0055 13.0189 12.4836 13.0189ZM10.4443 13.963C10.4443 12.8379 11.3573 11.9258 12.4836 11.9258C13.6099 11.9258 14.5229 12.8379 14.5229 13.963C14.5229 15.0882 13.6099 16.0003 12.4836 16.0003C11.3573 16.0003 10.4443 15.0882 10.4443 13.963Z"></path><path fill-rule="evenodd" clip-rule="evenodd" d="M6.51485 13.0189C5.99293 13.0189 5.56983 13.4416 5.56983 13.963C5.56983 14.4845 5.99293 14.9071 6.51485 14.9071C7.03678 14.9071 7.45988 14.4845 7.45988 13.963C7.45988 13.4416 7.03678 13.0189 6.51485 13.0189ZM4.47559 13.963C4.47559 12.8379 5.38859 11.9258 6.51485 11.9258C7.64111 11.9258 8.55412 12.8379 8.55412 13.963C8.55412 15.0882 7.64111 16.0003 6.51485 16.0003C5.38859 16.0003 4.47559 15.0882 4.47559 13.963Z"></path><path fill-rule="evenodd" clip-rule="evenodd" d="M0 0.546584C0 0.244714 0.244954 0 0.547121 0H3.25866C3.57425 0 3.84373 0.227598 3.89624 0.53848L4.30887 2.98137H15.3532C15.7531 2.98137 16.0571 3.34028 15.9909 3.73423L14.8558 10.492C14.8036 10.8031 14.5339 11.0311 14.2181 11.0311H5.10545C4.78986 11.0311 4.52037 10.8035 4.46786 10.4926L2.88022 1.09317H0.547121C0.244954 1.09317 0 0.848454 0 0.546584ZM4.49351 4.07453L5.48388 9.93789H13.8394L14.8242 4.07453H4.49351Z"></path></svg>