<svg id="Layer_1" data-name="Layer 1" xmlns="http://www.w3.org/2000/svg" viewBox="0 0 306.39 189.05"><defs><style>.cls-1{fill:#76bc21;opacity:0.6;}.cls-2{fill:#434343;}</style></defs><title>empty-basket-desktop-325x195</title><path class="cls-1" d="M18.57,92.29a3.84,3.84,0,1,1-3.84-3.84A3.84,3.84,0,0,1,18.57,92.29ZM306.28,43.52a3.84,3.84,0,1,0,3.84,3.84A3.84,3.84,0,0,0,306.28,43.52Zm-118.08,18L100,98.14A10.56,10.56,0,0,0,96.06,115l31.79,35.39,89.89-37.31Zm96.08,32.4c-17.89,0-32.4,15.51-32.4,34.63a37.3,37.3,0,0,0,.25,4.25,29.2,29.2,0,0,0,23.16,11.71c16.55,0,30-14.34,30-32A33.85,33.85,0,0,0,303,100.31,30.85,30.85,0,0,0,284.28,93.93ZM103.33,22.5a18.36,18.36,0,0,0-1.22-6.61A16.73,16.73,0,0,0,92,12.43c-9.7,0-17.57,8.41-17.57,18.78a20.23,20.23,0,0,0,.14,2.31,15.84,15.84,0,0,0,12.56,6.35C96.05,39.87,103.33,32.1,103.33,22.5ZM162.86,172c-6.29,0-11.38,5.45-11.38,12.17a13.1,13.1,0,0,0,.09,1.49,10.26,10.26,0,0,0,8.14,4.11c5.81,0,10.53-5,10.53-11.25a11.89,11.89,0,0,0-.79-4.28A10.84,10.84,0,0,0,162.86,172ZM215,150.31c-6.29,0-11.38,5.45-11.38,12.17a13.11,13.11,0,0,0,.09,1.49,10.26,10.26,0,0,0,8.14,4.11c5.81,0,10.53-5,10.53-11.25a11.89,11.89,0,0,0-.79-4.28A10.84,10.84,0,0,0,215,150.31Z" transform="translate(-7.31 -3.09)"/><path class="cls-2" d="M222.73,112.44l-.12-.25L183.94,43.31a20.48,20.48,0,0,1,10.89-26.63L215.4,8a2.5,2.5,0,0,0-1.95-4.6l-20.57,8.71a25.48,25.48,0,0,0-13.49,33.31l.12.25,1.81,3.22L67.13,97.2l-.9,4,49.08,55.76,2.85.65L218.4,115.12a20.42,20.42,0,0,1-11.11,26l-3.46,1.46h0l-51.85,22h0l-21.83,9.24a2.5,2.5,0,1,0,1.95,4.6l11.83-5a14.35,14.35,0,1,0,20-8.47l31.84-13.48a14.34,14.34,0,1,0,19-8.93h0A25.46,25.46,0,0,0,222.73,112.44Zm-24,5.56L171.87,86.37a2.5,2.5,0,1,0-3.81,3.24L194,120l-22.09,9.35L145,97.76a2.5,2.5,0,0,0-3.81,3.24L167,131.44,145,140.79,118,109.16a2.5,2.5,0,1,0-3.81,3.24l25.89,30.43-22.26,9.43-45.6-51.8L183.78,53.23,216,110.69Zm-32.59,56.15h0a9.36,9.36,0,1,1-12.27-5h0a9.36,9.36,0,0,1,12.26,5Zm51.85-22a9.36,9.36,0,1,1-12.27-5h0a9.35,9.35,0,0,1,12.26,5Zm59.71-67.31a31,31,0,0,0-28.43,43.41c0,.07.06.13.09.2a31,31,0,1,0,28.34-43.61Zm0,57a26,26,0,0,1-20.84-10.46,87.71,87.71,0,0,0,20.84,2.46,78.29,78.29,0,0,0,21-2.74A26,26,0,0,1,277.75,141.92Zm26-26a25.89,25.89,0,0,1-1.61,9,72.68,72.68,0,0,1-24.41,4,80,80,0,0,1-24.26-3.63A25.89,25.89,0,0,1,252.2,111a85.17,85.17,0,0,0,25.55,3.8,77.55,77.55,0,0,0,25.5-4.1A26,26,0,0,1,303.78,115.9Zm-26-6.09a80.06,80.06,0,0,1-24.15-3.6,26,26,0,0,1,48.18-.29A72.7,72.7,0,0,1,277.75,109.81Zm28.52-69.94a7.42,7.42,0,1,0,7.42,7.42A7.43,7.43,0,0,0,306.28,39.87Zm0,9.83a2.42,2.42,0,1,1,2.42-2.42A2.42,2.42,0,0,1,306.28,49.71ZM14.72,84.87a7.42,7.42,0,1,0,7.42,7.42A7.43,7.43,0,0,0,14.72,84.87Zm0,9.83a2.42,2.42,0,1,1,2.42-2.42A2.42,2.42,0,0,1,14.72,94.71Zm70-53.18a19.64,19.64,0,0,0,3,.24l.45,0L61.14,68.2a2.5,2.5,0,0,0,3.5,3.58L99.29,37.88A19.33,19.33,0,0,0,76.54,6.63L33.64,29.22A2.5,2.5,0,1,0,36,33.65L69.46,16a19.35,19.35,0,0,0,1.21,15.55L34.52,57.88a2.5,2.5,0,0,0,2.94,4l36.11-26.3A19.18,19.18,0,0,0,84.69,41.53Zm.78-4.94a14.23,14.23,0,0,1-7.81-3.94l7.28-5.3.15-.13a28,28,0,0,0,9.83,7.59A14.24,14.24,0,0,1,85.47,36.59ZM87.68,8.08A14.34,14.34,0,0,1,99.16,31a22.26,22.26,0,0,1-11.39-8.49A22.1,22.1,0,0,1,83.2,8.8,14.31,14.31,0,0,1,87.68,8.08Zm-9.41,3.54a27.66,27.66,0,0,0,3.94,11.56l-.21.12-7.25,5.28A14.36,14.36,0,0,1,78.26,11.63ZM232.17,45.52a2.5,2.5,0,0,1,0,3.54l-3.83,3.83a2.5,2.5,0,1,1-3.54-3.54l3.83-3.83A2.5,2.5,0,0,1,232.17,45.52Zm11.31-11.31a2.5,2.5,0,0,1,0,3.54l-3.83,3.83A2.5,2.5,0,1,1,236.12,38L240,34.21A2.5,2.5,0,0,1,243.49,34.21Zm0,15.15A2.5,2.5,0,1,1,240,52.89l-3.83-3.83a2.5,2.5,0,1,1,3.54-3.54ZM232.17,38a2.5,2.5,0,1,1-3.54,3.54l-3.83-3.83a2.5,2.5,0,1,1,3.54-3.54ZM54.32,161.1a2.5,2.5,0,0,1,0,3.54l-3.83,3.83A2.5,2.5,0,1,1,47,164.93l3.83-3.83A2.5,2.5,0,0,1,54.32,161.1Zm11.31-11.31a2.5,2.5,0,0,1,0,3.54l-3.83,3.83a2.5,2.5,0,1,1-3.54-3.54l3.83-3.83A2.5,2.5,0,0,1,65.63,149.79Zm0,15.15a2.5,2.5,0,1,1-3.54,3.54l-3.83-3.83a2.5,2.5,0,1,1,3.54-3.54ZM54.32,153.62a2.5,2.5,0,1,1-3.54,3.54L47,153.32a2.5,2.5,0,1,1,3.54-3.54ZM263,177.79a2.86,2.86,0,1,1-2.86-2.86A2.86,2.86,0,0,1,263,177.79ZM130.19,44.43A2.86,2.86,0,1,1,133,47.29,2.86,2.86,0,0,1,130.19,44.43Z" transform="translate(-7.31 -3.09)"/></svg>