<svg viewBox="0 0 18 16" fill="none" width="18" height="16"><path d="M8.42499 2.34819L8.95719 2.98372L9.53647 2.39078C10.4804 1.42459 11.7192 0.75 13.0737 0.75C15.4335 0.75 17.25 2.48485 17.25 4.8C17.25 6.1929 16.6143 7.53655 15.3189 9.0719C14.0169 10.6151 12.1253 12.2637 9.74769 14.2714L9.73271 14.2841L9.7184 14.2975L9 14.9716L8.2816 14.2975L8.27026 14.2869L8.2585 14.2767C5.87598 12.2201 3.9839 10.5719 2.67945 9.0366C1.38339 7.5112 0.75 6.19054 0.75 4.8C0.75 2.48485 2.56648 0.75 4.92632 0.75C6.32775 0.75 7.53344 1.28354 8.42499 2.34819Z" stroke="#C4C4C4" stroke-width="1.5"/></svg>