<svg xmlns="http://www.w3.org/2000/svg" width="15" height="14" viewBox="0 0 15 14">
    <path fill="#434343" fill-rule="evenodd" d="M5.161 6.331c-.862 0-1.574-.668-1.574-1.48 0-.81.712-1.479 1.574-1.479.863 0 1.575.669 1.575 1.48 0 .81-.712 1.48-1.575 1.48zm0-3.656c-1.271 0-2.315.982-2.315 2.177S3.89 7.028 5.16 7.028c1.272 0 2.316-.981 2.316-2.176 0-1.195-1.044-2.177-2.316-2.177zm6.358 6.09c-.531 0-.963-.407-.963-.906 0-.5.432-.905.963-.905.53 0 .963.406.963.905s-.432.905-.963.905zm0-2.413c-.885 0-1.604.676-1.604 1.507 0 .831.72 1.507 1.604 1.507.884 0 1.604-.676 1.604-1.507 0-.831-.72-1.507-1.604-1.507zm2.84 1.608c-.01.27-.065.54-.165.805l-.004.022c-.527 1.618-2.067 3.784-2.671 4.554-.582-.742-2.031-2.779-2.605-4.369.46-.847.864-1.703 1.121-2.484.12-.336.206-.68.252-1.03.373-.171.79-.27 1.232-.27.768 0 1.48.277 2.004.779.54.497.836 1.17.836 1.892v.1zm-9.167 5.343c-.015 0-.015.014-.03.014-.016 0-.03-.014-.03-.014-.803-1.01-3.3-4.453-4.133-7.043v-.014a3.94 3.94 0 0 1-.257-1.252v-.142C.742 2.56 2.725.697 5.162.697c1.18 0 2.3.427 3.118 1.21A3.978 3.978 0 0 1 9.58 4.852v.156a3.94 3.94 0 0 1-.257 1.252v.014c-.833 2.576-3.33 6.019-4.132 7.029zm8.787-7.757a3.573 3.573 0 0 0-2.46-.96c-.421 0-.824.071-1.198.2-.018-1.27-.56-2.468-1.512-3.363A5.313 5.313 0 0 0 5.161 0C2.316 0 0 2.177 0 4.852v.17c.015.498.106.982.288 1.452.877 2.674 3.436 6.217 4.253 7.241a.793.793 0 0 0 .62.285c.243 0 .47-.1.621-.285.51-.64 1.7-2.26 2.734-4.036.723 1.628 2.058 3.476 2.533 4.072a.601.601 0 0 0 .47.215.601.601 0 0 0 .47-.216c.547-.686 2.24-3.038 2.817-4.789.12-.34.184-.66.194-.98v-.122c0-.873-.363-1.694-1.02-2.313z"/>
</svg>
