<svg class="db" width="20" height="14" xmlns="http://www.w3.org/2000/svg" fill="#ffffff" viewBox="0 0 20 14"><path fill-rule="evenodd" d="M20 1.59033c0 .33034-.2678.59814-.5981.59814H.598141C.267797 2.18847 0 1.92067 0 1.59033 0 1.25998.267797.992188.598141.992188H19.4019c.3303 0 .5981.267792.5981.598142zm0 5.78512c0 .33035-.2678.59815-.5981.59815H.598141C.267797 7.9736 0 7.7058 0 7.37545c0-.33034.267797-.59814.598141-.59814H19.4019c.3303 0 .5981.2678.5981.59814zm0 5.78515c0 .3303-.2678.5981-.5981.5981H.598141C.267797 13.7587 0 13.4909 0 13.1606c0-.3304.267797-.5982.598141-.5982H19.4019c.3303 0 .5981.2678.5981.5982z" clip-rule="evenodd"></path></svg>