<svg class="db" xmlns="http://www.w3.org/2000/svg" viewBox="0 0 26 24" fill="#ffffff"><path fill-rule="evenodd" d="M13.5388 3.58398c2.2512 0 4.1142 1.86302 4.1142 4.11416 0 2.32876-1.863 4.11416-4.1142 4.11416-2.3288 0-4.19177-1.7854-4.19177-4.11416 0-2.25114 1.86297-4.11416 4.19177-4.11416zm2.0959 8.53882c2.7552.5957 5.0103 2.4057 6.2173 7.0746.0803.3106-.1575.6103-.4784.6103H5.62639c-.32086 0-.55866-.2997-.478-.6102 1.21265-4.6689 3.5362-6.479 6.21691-7.0747 1.3973.5434 2.9498.5434 4.2694 0zm.0776 1.0091c-1.3972.5434-2.9497.5434-4.4246 0-2.87217.6987-4.26944 3.0274-5.04569 5.6667H20.758c-.7763-2.6393-2.1735-4.968-5.0457-5.6667zm-2.1735-8.53878c1.7078 0 3.105 1.39726 3.105 3.10502 0 1.78539-1.3972 3.18266-3.105 3.18266-1.7854 0-3.1826-1.39727-3.1826-3.18266 0-1.70776 1.3972-3.10502 3.1826-3.10502z"></path></svg>