<svg class="db" xmlns="http://www.w3.org/2000/svg" fill="#ffffff" viewBox="0 0 26 24"><path d="M16.3512 5.78027c-2.8482 0-5.1828 2.37227-5.1828 5.33063 0 2.9584 2.3346 5.3307 5.1828 5.3307 1.4893 0 2.834-.6457 3.7823-1.6864.8677-.9523 1.4004-2.2326 1.4004-3.6443 0-2.95836-2.3346-5.33063-5.1827-5.33063zM9.97217 11.1109c0-3.59037 2.84183-6.52692 6.37903-6.52692 3.5371 0 6.379 2.93655 6.379 6.52692 0 1.5107-.5023 2.904-1.3468 4.0116l3.5451 3.5691c.2328.2344.2316.6131-.0028.8459s-.6131.2315-.8459-.0028l-3.5069-3.5306c-1.123 1.0149-2.6009 1.6337-4.2217 1.6337-3.5372 0-6.37903-2.9365-6.37903-6.5269zM6.98141 8.17334c0 .33034-.2678.59814-.59814.59814H1.59814C1.2678 8.77148 1 8.50368 1 8.17334c0-.33035.2678-.59814.59814-.59814h4.78513c.33034 0 .59814.26779.59814.59814zm0 4.78516c0 .3303-.2678.5981-.59814.5981H1.59814C1.2678 13.5566 1 13.2888 1 12.9585c0-.3304.2678-.5982.59814-.5982h4.78513c.33034 0 .59814.2678.59814.5982zm2.39256 4.7851c0 .3303-.2678.5981-.59814.5981H1.59814C1.2678 18.3417 1 18.0739 1 17.7436c0-.3304.2678-.5982.59814-.5982h7.17769c.33034 0 .59814.2678.59814.5982z"></path></svg>