<svg xmlns="http://www.w3.org/2000/svg" width="18" height="18" viewBox="0 0 17 17">
    <path fill="#c4c4c4" fill-rule="nonzero" d="M15.82.34a.53.53 0 0 0-.52 0l-4.61 2.32L6.08.32A.51.51 0 0 0 6 .3a.51.51 0 0 0-.13 0 .51.51 0 0 0-.13 0 .51.51 0 0 0-.11 0L.87 2.72a.53.53 0 0 0-.29.48v12.65c0 .188.1.362.26.46a.53.53 0 0 0 .52 0L5.84 14l4.48 2.28a.53.53 0 0 0 .24.06.54.54 0 0 0 .13 0 .54.54 0 0 0 .13 0 .53.53 0 0 0 .24-.06l4.73-2.4a.53.53 0 0 0 .29-.48V.8a.54.54 0 0 0-.26-.46zM10 15l-3.62-1.88V1.67L10 3.53V15z" opacity=".9"/>
</svg>
