<svg width="14" height="20" viewBox="0 0 14 20" fill="#555555" xmlns="http://www.w3.org/2000/svg">
<path d="M7 17C10.8598 17 14 13.8598 14 10C14 6.14017 10.8598 3 7 3C3.14017 3 0 6.14017 0 10C0 13.8598 3.14017 17 7 17ZM5.27281 8.72105C5.27281 7.76855 6.0475 6.99387 7 6.99387C7.9525 6.99387 8.72719 7.76855 8.72719 8.72105C8.72719 9.67355 7.9525 10.4484 7 10.4484C6.0475 10.4484 5.27281 9.67355 5.27281 8.72105ZM7 15.7117C5.77775 15.7117 4.64408 15.3257 3.71422 14.6694C3.6082 14.5946 3.5052 14.5166 3.40505 14.4354C3.57901 13.8323 3.90278 13.2839 4.3537 12.833C5.06061 12.1263 6.00019 11.7367 7 11.7367C8.67954 11.7367 10.138 12.852 10.5949 14.4354C10.4948 14.5166 10.3918 14.5946 10.2858 14.6694C9.35592 15.3257 8.22225 15.7117 7 15.7117ZM7 4.28834C10.1496 4.28834 12.7117 6.85044 12.7117 10C12.7117 11.2743 12.2921 12.4522 11.5844 13.4034C11.0793 12.2863 10.1831 11.3996 9.08333 10.8993C9.65738 10.3499 10.0155 9.57659 10.0155 8.72105C10.0155 7.05828 8.66277 5.70552 7 5.70552C5.33723 5.70552 3.98447 7.05828 3.98447 8.72105C3.98447 9.57609 4.34212 10.3491 4.9155 10.898C4.37399 11.1441 3.87577 11.4885 3.44246 11.9218C3.00915 12.3551 2.66342 12.8558 2.41564 13.4029C1.70756 12.4517 1.28834 11.2743 1.28834 10C1.28834 6.85044 3.85044 4.28834 7 4.28834Z" />
</svg>
