<svg xmlns="http://www.w3.org/2000/svg" xmlns:xlink="http://www.w3.org/1999/xlink" width="33" height="33" viewBox="0 0 33 33">
    <defs>
        <path id="a" d="M27.682 26.366l-5.443-5.448c3.145-3.813 2.963-9.502-.666-13.073A9.745 9.745 0 0 0 14.678 5c-2.601 0-4.96 1.029-6.835 2.845A9.758 9.758 0 0 0 5 14.745a9.758 9.758 0 0 0 2.843 6.9 9.745 9.745 0 0 0 6.895 2.844c2.299 0 4.476-.786 6.17-2.239l5.444 5.447c.181.182.423.303.665.303.242 0 .484-.121.665-.303a.857.857 0 0 0 0-1.331zm-7.379-6.053c-1.512 1.513-3.448 2.3-5.565 2.3-2.117 0-4.052-.787-5.564-2.3-1.513-1.513-2.299-3.45-2.299-5.568 0-2.119.786-4.056 2.299-5.569 1.512-1.513 3.447-2.3 5.564-2.3s4.053.787 5.565 2.3a7.858 7.858 0 0 1 0 11.137zm-1.089-5.568a.956.956 0 0 1-.967.968h-2.601v2.603a.956.956 0 0 1-.968.968.956.956 0 0 1-.968-.968v-2.603h-2.6a.956.956 0 0 1-.969-.968c0-.545.424-.969.968-.969h2.601v-2.602c0-.545.423-.969.968-.969.544 0 .968.424.968.969v2.602h2.661c.484 0 .907.485.907.969z"/>
    </defs>
    <g fill="none" fill-rule="evenodd">
        <mask id="b" fill="#fff">
            <use xlink:href="#a"/>
        </mask>

        <g fill="#C4C4C4" mask="url(#b)">
            <path d="M-8-10h50v50H-8z"/>
        </g>
    </g>
</svg>
